<svg xmlns="http://www.w3.org/2000/svg" width="1000" height="1000" viewBox="0 0 1000 1000" version="1.1"><path d="M 517.322 187.750 C 534.274 187.903, 561.724 187.903, 578.322 187.749 C 594.920 187.595, 581.050 187.470, 547.500 187.470 C 513.950 187.470, 500.370 187.596, 517.322 187.750 M 466.314 211.749 C 475.561 211.914, 490.411 211.913, 499.314 211.748 C 508.216 211.582, 500.650 211.447, 482.500 211.448 C 464.350 211.448, 457.066 211.583, 466.314 211.749 M 96 304 L 96 354 118.334 354 L 140.668 354 144.494 348.444 C 151.694 337.989, 163.554 329.709, 176 326.446 C 183.885 324.378, 197.523 324.145, 205 325.950 C 218.483 329.205, 232.329 338.604, 239.034 349.053 L 242.316 354.167 295.408 353.680 C 324.609 353.412, 348.624 353.150, 348.776 353.097 C 348.927 353.043, 346.628 350.144, 343.666 346.653 C 327.121 327.149, 316.026 302.295, 310.340 272 C 308.947 264.575, 307.617 257.488, 307.384 256.250 L 306.962 254 201.481 254 L 96 254 96 304 M 747.250 738.747 C 753.712 738.921, 764.288 738.921, 770.750 738.747 C 777.212 738.573, 771.925 738.430, 759 738.430 C 746.075 738.430, 740.788 738.573, 747.250 738.747 M 837.311 738.748 C 845.457 738.916, 858.507 738.916, 866.311 738.747 C 874.115 738.579, 867.450 738.441, 851.500 738.441 C 835.550 738.442, 829.165 738.580, 837.311 738.748 M 96 749 L 96 759 127.500 759 L 159 759 159 749 L 159 739 127.500 739 L 96 739 96 749 M 200 749 L 200 759 237.615 759 L 275.230 759 273.462 756.250 C 272.490 754.737, 270.494 751.925, 269.027 750 C 267.560 748.075, 265.342 744.813, 264.098 742.750 L 261.837 739 230.918 739 L 200 739 200 749" stroke="none" fill="#a6a698" fill-rule="evenodd"/><path d="M 46.929 335.474 C 46.432 335.660, 46.899 409.232, 47.401 409.734 C 48.506 410.840, 53.008 410.796, 53.702 409.673 C 54.049 409.111, 54.371 392.341, 54.417 372.407 L 54.500 336.162 50.750 335.805 C 48.688 335.608, 46.968 335.459, 46.929 335.474 M 774.414 530.970 L 772.328 531.814 774.645 546.157 C 775.919 554.046, 777.224 566.800, 777.544 574.500 C 778.352 593.917, 778.033 593, 783.982 593 C 794.812 593, 806.030 585.668, 811.171 575.229 C 814.589 568.288, 814.528 554.590, 811.047 547.516 C 805.660 536.568, 794.898 529.939, 782.712 530.063 C 779.296 530.098, 775.561 530.506, 774.414 530.970" stroke="none" fill="#224056" fill-rule="evenodd"/><path d="M 151 148.500 L 151 151 204 151 L 257 151 257 148.500 L 257 146 204 146 L 151 146 151 148.500 M 408.750 187.745 C 413.837 187.927, 422.162 187.927, 427.250 187.745 C 432.337 187.564, 428.175 187.415, 418 187.415 C 407.825 187.415, 403.662 187.564, 408.750 187.745 M 137 202 L 137 211 203 211 L 269 211 269 202 L 269 193 203 193 L 137 193 137 202 M 386.998 211.250 C 386.999 211.662, 396.113 211.911, 407.250 211.801 C 427.513 211.602, 425.133 211.249, 400.248 210.760 C 392.960 210.617, 386.997 210.838, 386.998 211.250 M 95.241 303.750 L 95.481 354.500 95.750 304.252 L 96.018 254.003 388.259 253.750 L 680.500 253.497 387.750 253.248 L 95 253 95.241 303.750 M 791.241 253.750 L 891.981 254.010 892.250 303.755 L 892.519 353.500 892.760 303.250 L 893 253 791.750 253.245 L 690.500 253.490 791.241 253.750 M 786.684 273.748 C 797.235 273.910, 814.785 273.911, 825.684 273.749 C 836.583 273.587, 827.950 273.455, 806.500 273.455 C 785.050 273.454, 776.133 273.587, 786.684 273.748 M 749.374 303.500 C 749.376 309.550, 749.541 311.896, 749.740 308.713 C 749.939 305.531, 749.937 300.581, 749.736 297.713 C 749.535 294.846, 749.372 297.450, 749.374 303.500 M 863.355 303.500 C 863.352 308.450, 863.521 310.601, 863.731 308.280 C 863.940 305.959, 863.943 301.909, 863.736 299.280 C 863.530 296.651, 863.358 298.550, 863.355 303.500 M 789.315 332.749 C 799.664 332.912, 816.314 332.911, 826.315 332.748 C 836.317 332.585, 827.850 332.452, 807.500 332.453 C 787.150 332.453, 778.967 332.586, 789.315 332.749 M 656.250 353.746 C 661.612 353.925, 670.388 353.925, 675.750 353.746 C 681.112 353.566, 676.725 353.419, 666 353.419 C 655.275 353.419, 650.888 353.566, 656.250 353.746 M 892 748.487 L 892 758.974 857.250 759.250 L 822.500 759.527 857.750 759.763 L 893 760 893 749 C 893 742.950, 892.775 738, 892.500 738 C 892.225 738, 892 742.719, 892 748.487 M 95.211 749.250 L 95 760 127.250 759.765 L 159.500 759.529 127.785 759.251 L 96.070 758.972 95.746 748.736 L 95.422 738.500 95.211 749.250 M 274.397 757.833 C 274.921 758.680, 265.330 759.047, 237.302 759.250 L 199.500 759.525 237.750 759.762 C 273.542 759.985, 278.510 759.669, 274.845 757.405 C 274.135 756.965, 273.962 757.130, 274.397 757.833 M 736.750 759.748 C 745.138 759.915, 758.862 759.915, 767.250 759.748 C 775.638 759.581, 768.775 759.444, 752 759.444 C 735.225 759.444, 728.362 759.581, 736.750 759.748" stroke="none" fill="#68696a" fill-rule="evenodd"/><path d="M 46.929 335.474 C 46.432 335.660, 46.899 409.232, 47.401 409.734 C 48.506 410.840, 53.008 410.796, 53.702 409.673 C 54.049 409.111, 54.371 392.341, 54.417 372.407 L 54.500 336.162 50.750 335.805 C 48.688 335.608, 46.968 335.459, 46.929 335.474 M 774.414 530.970 L 772.328 531.814 774.645 546.157 C 775.919 554.046, 777.224 566.800, 777.544 574.500 C 778.352 593.917, 778.033 593, 783.982 593 C 794.812 593, 806.030 585.668, 811.171 575.229 C 814.589 568.288, 814.528 554.590, 811.047 547.516 C 805.660 536.568, 794.898 529.939, 782.712 530.063 C 779.296 530.098, 775.561 530.506, 774.414 530.970" stroke="none" fill="#224056" fill-rule="evenodd"/><path d="M 742.325 394.750 C 766.979 394.899, 807.029 394.899, 831.325 394.750 C 855.621 394.601, 835.450 394.479, 786.500 394.479 C 737.550 394.479, 717.671 394.601, 742.325 394.750 M 96 546.583 L 96 698.166 167.417 697.833 C 206.696 697.650, 239.099 697.234, 239.424 696.910 C 239.748 696.585, 238.190 691.410, 235.961 685.410 C 214.182 626.773, 214.434 555.304, 236.633 494.754 C 248.188 463.240, 268.399 429.318, 289.515 406 C 292.753 402.425, 296.290 398.488, 297.375 397.250 L 299.349 395 272.924 395.027 L 246.500 395.054 242.812 402.849 C 230.575 428.713, 198.926 441.013, 171 430.756 C 163.460 427.987, 152.885 420.838, 147.979 415.192 C 145.736 412.611, 142.236 407.025, 140.201 402.777 L 136.500 395.054 116.250 395.027 L 96 395 96 546.583" stroke="none" fill="#734a2b" fill-rule="evenodd"/><path d="M 517.322 187.750 C 534.274 187.903, 561.724 187.903, 578.322 187.749 C 594.920 187.595, 581.050 187.470, 547.500 187.470 C 513.950 187.470, 500.370 187.596, 517.322 187.750 M 466.314 211.749 C 475.561 211.914, 490.411 211.913, 499.314 211.748 C 508.216 211.582, 500.650 211.447, 482.500 211.448 C 464.350 211.448, 457.066 211.583, 466.314 211.749 M 96 304 L 96 354 118.334 354 L 140.668 354 144.494 348.444 C 151.694 337.989, 163.554 329.709, 176 326.446 C 183.885 324.378, 197.523 324.145, 205 325.950 C 218.483 329.205, 232.329 338.604, 239.034 349.053 L 242.316 354.167 295.408 353.680 C 324.609 353.412, 348.624 353.150, 348.776 353.097 C 348.927 353.043, 346.628 350.144, 343.666 346.653 C 327.121 327.149, 316.026 302.295, 310.340 272 C 308.947 264.575, 307.617 257.488, 307.384 256.250 L 306.962 254 201.481 254 L 96 254 96 304 M 747.250 738.747 C 753.712 738.921, 764.288 738.921, 770.750 738.747 C 777.212 738.573, 771.925 738.430, 759 738.430 C 746.075 738.430, 740.788 738.573, 747.250 738.747 M 837.311 738.748 C 845.457 738.916, 858.507 738.916, 866.311 738.747 C 874.115 738.579, 867.450 738.441, 851.500 738.441 C 835.550 738.442, 829.165 738.580, 837.311 738.748 M 96 749 L 96 759 127.500 759 L 159 759 159 749 L 159 739 127.500 739 L 96 739 96 749 M 200 749 L 200 759 237.615 759 L 275.230 759 273.462 756.250 C 272.490 754.737, 270.494 751.925, 269.027 750 C 267.560 748.075, 265.342 744.813, 264.098 742.750 L 261.837 739 230.918 739 L 200 739 200 749" stroke="none" fill="#a6a698" fill-rule="evenodd"/><path d="M 504.478 187.755 L 400.456 188.009 394.277 199.220 C 390.879 205.387, 388.189 210.507, 388.299 210.598 C 388.764 210.984, 660 212.175, 660 211.792 C 660 211.560, 657.618 206.008, 654.706 199.453 L 649.412 187.535 628.956 187.517 C 617.705 187.508, 561.690 187.615, 504.478 187.755 M 307.662 257.750 C 313.026 295.273, 326.081 326.950, 344.960 348.250 C 347.275 350.863, 349.862 353, 350.708 353 C 351.554 353, 355.454 351.054, 359.373 348.676 C 369.102 342.774, 390.142 332.977, 403.760 328.009 C 419.911 322.117, 438.954 317.362, 458.500 314.342 C 473.350 312.048, 478.472 311.721, 499 311.759 C 519.039 311.796, 525.004 312.182, 539.500 314.379 C 575.259 319.800, 612.445 332.761, 639.651 349.288 L 645.762 353 768.881 353 L 892 353 892 303.500 L 892 254 599.563 254 L 307.126 254 307.662 257.750 M 761.389 275.493 C 751.907 280.219, 749 286.890, 749 303.929 C 749 314.422, 749.257 316.123, 751.533 320.691 C 754.458 326.561, 759.437 330.427, 766 331.924 C 768.647 332.528, 785.945 332.952, 808 332.954 C 842.921 332.956, 845.793 332.823, 849.754 331.025 C 855.102 328.598, 858.619 324.888, 861.626 318.500 C 863.587 314.335, 863.978 311.914, 863.966 304 C 863.940 287.236, 860.865 280.105, 851.691 275.533 L 846.607 273 806.500 273 L 766.393 273 761.389 275.493 M 481 353.687 C 469.774 354.432, 449.124 358.056, 437 361.407 C 395.312 372.930, 361.193 392.769, 330.809 423.153 C 294.706 459.256, 272.679 502.502, 263.858 554.597 C 260.732 573.061, 260.752 608.610, 263.899 627.500 C 272.485 679.028, 294.928 723.075, 330.898 758.993 C 367.130 795.173, 410.890 817.493, 462.500 826.118 C 481.272 829.255, 516.799 829.250, 535.466 826.108 C 587.278 817.387, 630.715 795.318, 666.526 759.521 C 703.373 722.687, 726.003 678.359, 734.179 627 C 737.265 607.612, 737.230 573.120, 734.105 554.534 C 725.398 502.746, 703.319 459.286, 667.521 423.474 C 630.716 386.656, 585.777 363.717, 535.121 355.891 C 522.970 354.014, 493.902 352.830, 481 353.687 M 485.500 387.632 C 454.477 389.602, 421.681 399.997, 393.500 416.793 C 368.393 431.756, 340.319 459.831, 325.295 485 C 309.568 511.345, 301.333 533.906, 296.457 564 C 294.117 578.448, 294.117 610.552, 296.457 625 C 301.333 655.094, 309.568 677.655, 325.295 704 C 337.073 723.730, 356.412 745.054, 376 759.910 C 389.490 770.141, 395.928 774.124, 410.654 781.352 C 439.294 795.408, 465.404 801.305, 499 801.305 C 533.323 801.305, 558.995 795.421, 588.222 780.854 C 603.976 773.003, 611.536 768.272, 624 758.462 C 643.355 743.229, 661.762 722.623, 672.978 703.633 C 694.823 666.649, 703.289 636.042, 703.302 594 C 703.306 583.275, 703.005 573.150, 702.634 571.500 C 702.007 568.712, 702.284 568.328, 706.555 566.071 C 719.776 559.084, 724.532 543.097, 717.326 529.859 C 712.495 520.981, 703.868 516, 693.326 516 L 689.015 516 682.922 503.844 C 679.570 497.159, 675.823 490.071, 674.593 488.094 C 672.999 485.531, 672.565 483.783, 673.080 482 C 673.476 480.625, 673.845 475.184, 673.900 469.910 C 674.273 434.077, 648.155 405.506, 611.361 401.498 C 604.851 400.789, 592.309 402.274, 585.995 404.502 C 583.924 405.232, 581.841 405.449, 581.365 404.983 C 580.889 404.517, 576.455 402.510, 571.512 400.522 C 560.776 396.207, 543.044 391.600, 529.404 389.584 C 518.918 388.034, 495.541 386.995, 485.500 387.632 M 851.750 738.765 L 823 739.031 823 749.015 L 823 759 857.500 759 L 892 759 892 749 C 892 741.711, 891.661 738.978, 890.750 738.917 C 885.480 738.568, 876.777 738.534, 851.750 738.765 M 731.230 746.750 C 728.345 751.013, 725.258 755.513, 724.370 756.750 L 722.756 759 752.378 759 L 782 759 782 749 L 782 739 759.238 739 L 736.476 739 731.230 746.750" stroke="none" fill="#c7c6c6" fill-rule="evenodd"/><path d="M 633.750 212.745 C 638.837 212.927, 647.163 212.927, 652.250 212.745 C 657.337 212.564, 653.175 212.415, 643 212.415 C 632.825 212.415, 628.663 212.564, 633.750 212.745 M 853.310 353.748 C 860.905 353.918, 873.055 353.918, 880.310 353.747 C 887.564 353.576, 881.350 353.437, 866.500 353.438 C 851.650 353.438, 845.714 353.578, 853.310 353.748 M 294.865 394.738 L 299.230 395.126 296.865 397.813 L 294.500 400.500 297.250 398.076 C 298.762 396.742, 300 395.280, 300 394.826 C 300 394.372, 297.863 394.079, 295.250 394.175 L 290.500 394.349 294.865 394.738 M 95.487 546.500 C 95.487 630.100, 95.605 664.152, 95.750 622.171 C 95.894 580.191, 95.894 511.791, 95.750 470.171 C 95.605 428.552, 95.487 462.900, 95.487 546.500 M 473.847 432.535 C 422.287 441.231, 378.766 473.487, 354.619 520.901 C 343.191 543.338, 337.841 566.809, 337.841 594.500 C 337.841 639.068, 353.005 677.080, 383.471 708.880 C 407.859 734.336, 439.272 750.703, 475 756.569 C 486.402 758.442, 512.064 758.387, 523.913 756.465 C 570.800 748.861, 610.957 721.785, 636.806 680.347 C 652.608 655.016, 660.273 626.939, 660.244 594.500 C 660.224 572.131, 657.903 558.188, 650.807 537.788 C 646.511 525.441, 646.267 525.190, 641.424 528.168 C 639.266 529.495, 635.475 531.433, 633 532.475 C 626.859 535.059, 626.625 535.364, 628.275 538.635 C 630.841 543.721, 635.806 559.279, 637.486 567.500 C 650.582 631.573, 620.083 694.796, 561.985 724.007 C 529.559 740.311, 490.392 742.857, 454.797 730.975 C 414.587 717.552, 381.386 684.491, 367.453 644 C 356.710 612.779, 356.942 578.463, 368.103 547.882 C 378.700 518.844, 399.584 493.233, 426.507 476.260 C 438.753 468.540, 458.267 460.914, 473.500 457.895 C 490.242 454.578, 514.103 454.978, 530.184 458.845 L 537.867 460.693 539.473 453.597 C 540.355 449.694, 542.091 444.427, 543.329 441.893 L 545.580 437.286 538.540 435.575 C 519.343 430.910, 491.296 429.591, 473.847 432.535 M 220.310 572.500 C 220.315 575.800, 220.502 577.029, 220.725 575.232 C 220.947 573.435, 220.943 570.735, 220.715 569.232 C 220.486 567.729, 220.304 569.200, 220.310 572.500 M 295.382 594.500 C 295.384 601.100, 295.546 603.670, 295.741 600.211 C 295.937 596.752, 295.936 591.352, 295.738 588.211 C 295.540 585.070, 295.380 587.900, 295.382 594.500 M 757 697.250 C 757 697.663, 784.337 697.897, 817.750 697.771 C 851.163 697.644, 868.825 697.420, 857 697.273 C 801.444 696.579, 756.999 696.569, 757 697.250" stroke="none" fill="#453933" fill-rule="evenodd"/><path d="M 150 147.941 C 150 149.559, 150.369 151.110, 150.819 151.388 C 151.270 151.667, 151.443 150.568, 151.206 148.947 L 150.773 146 203.820 146 L 256.867 146 257.284 148.750 C 257.671 151.310, 257.711 151.275, 257.850 148.250 L 258 145 204 145 L 150 145 150 147.941 M 747.312 353.748 C 756.009 353.915, 769.959 353.915, 778.312 353.748 C 786.666 353.581, 779.550 353.444, 762.500 353.445 C 745.450 353.445, 738.616 353.582, 747.312 353.748 M 492 497.618 C 462.229 501.076, 438.762 513.906, 422.350 535.701 C 394.389 572.832, 394.362 621.132, 422.282 658.209 C 452.445 698.264, 510.186 708.525, 552.632 681.373 C 583.867 661.391, 602.086 623.674, 598.118 587.203 C 595.307 561.361, 582.699 536.644, 566.465 525.151 C 562.634 522.439, 557.578 518.178, 555.230 515.683 C 551.300 511.508, 540.186 505, 536.987 505 C 536.241 505, 533.747 504.088, 531.444 502.973 C 523.791 499.268, 502.583 496.389, 492 497.618 M 488 527.970 C 474.126 530.668, 461.216 537.639, 451.001 547.945 C 442.293 556.733, 437.012 565.262, 433.322 576.500 C 431.019 583.512, 430.691 586.167, 430.668 598 C 430.644 609.837, 430.954 612.444, 433.188 619.167 C 437.156 631.110, 442.417 639.570, 451.433 648.500 C 460.385 657.367, 468.703 662.330, 481 666.140 C 487.087 668.026, 490.761 668.464, 500.500 668.464 C 514.236 668.464, 522.434 666.462, 534.500 660.161 C 543.933 655.234, 556.255 642.919, 561.738 632.938 C 568.594 620.458, 570.502 612.661, 570.411 597.500 C 570.345 586.404, 569.962 583.377, 567.799 576.833 C 563.977 565.268, 558.550 556.429, 550.061 547.939 C 536.780 534.658, 522.081 528.209, 503.500 527.509 C 497.450 527.281, 490.475 527.489, 488 527.970 M 215.250 738.748 C 223.912 738.915, 238.087 738.915, 246.750 738.748 C 255.412 738.582, 248.325 738.445, 231 738.445 C 213.675 738.445, 206.587 738.582, 215.250 738.748" stroke="none" fill="#464748" fill-rule="evenodd"/><path d="M 934 510 L 934 675 947 675 L 960 675 960 510 L 960 345 947 345 L 934 345 934 510 M 608.267 440.120 C 591.105 443.241, 580.500 460.449, 585.385 477.252 C 587.649 485.041, 595.111 493.150, 602.590 495.948 C 613.212 499.922, 624.295 498.013, 632.492 490.798 C 644.088 480.591, 646.015 464.526, 637.165 451.849 C 631.060 443.102, 618.934 438.181, 608.267 440.120 M 690.289 537.250 C 687.277 540.541, 686.727 543.411, 688.359 547.317 C 691.274 554.293, 701.030 554.170, 703.950 547.121 C 706.323 541.391, 702.132 535, 696 535 C 693.490 535, 691.705 535.703, 690.289 537.250" stroke="none" fill="#ffffff" fill-rule="evenodd"/><path d="M 594.156 402.449 C 580 405.132, 563.950 414.670, 554.289 426.139 C 543.939 438.426, 538.739 452.927, 538.739 469.500 C 538.739 496.340, 552.964 518.823, 577.398 530.604 C 597.214 540.157, 622.344 538.825, 641.490 527.206 C 660.675 515.563, 674 491.971, 674 469.648 C 674 443.431, 659.796 420.338, 636.500 408.680 C 623.464 402.157, 607.833 399.857, 594.156 402.449 M 608.267 440.120 C 591.105 443.241, 580.500 460.449, 585.385 477.252 C 587.649 485.041, 595.111 493.150, 602.590 495.948 C 613.212 499.922, 624.295 498.013, 632.492 490.798 C 644.088 480.591, 646.015 464.526, 637.165 451.849 C 631.060 443.102, 618.934 438.181, 608.267 440.120 M 684.500 518.403 C 673.921 523.242, 666.923 535.238, 668.489 545.847 C 671.923 569.116, 702.219 576.865, 715.904 557.974 C 719.494 553.018, 721.505 544.850, 720.607 538.867 C 719.750 533.153, 714.931 524.812, 710.561 521.479 C 703.170 515.841, 692.779 514.615, 684.500 518.403 M 690.289 537.250 C 687.277 540.541, 686.727 543.411, 688.359 547.317 C 691.274 554.293, 701.030 554.170, 703.950 547.121 C 706.323 541.391, 702.132 535, 696 535 C 693.490 535, 691.705 535.703, 690.289 537.250" stroke="none" fill="#d1eaef" fill-rule="evenodd"/><path d="M 504.478 187.755 L 400.456 188.009 394.277 199.220 C 390.879 205.387, 388.189 210.507, 388.299 210.598 C 388.764 210.984, 660 212.175, 660 211.792 C 660 211.560, 657.618 206.008, 654.706 199.453 L 649.412 187.535 628.956 187.517 C 617.705 187.508, 561.690 187.615, 504.478 187.755 M 307.662 257.750 C 313.026 295.273, 326.081 326.950, 344.960 348.250 C 347.275 350.863, 349.862 353, 350.708 353 C 351.554 353, 355.454 351.054, 359.373 348.676 C 369.102 342.774, 390.142 332.977, 403.760 328.009 C 419.911 322.117, 438.954 317.362, 458.500 314.342 C 473.350 312.048, 478.472 311.721, 499 311.759 C 519.039 311.796, 525.004 312.182, 539.500 314.379 C 575.259 319.800, 612.445 332.761, 639.651 349.288 L 645.762 353 768.881 353 L 892 353 892 303.500 L 892 254 599.563 254 L 307.126 254 307.662 257.750 M 761.389 275.493 C 751.907 280.219, 749 286.890, 749 303.929 C 749 314.422, 749.257 316.123, 751.533 320.691 C 754.458 326.561, 759.437 330.427, 766 331.924 C 768.647 332.528, 785.945 332.952, 808 332.954 C 842.921 332.956, 845.793 332.823, 849.754 331.025 C 855.102 328.598, 858.619 324.888, 861.626 318.500 C 863.587 314.335, 863.978 311.914, 863.966 304 C 863.940 287.236, 860.865 280.105, 851.691 275.533 L 846.607 273 806.500 273 L 766.393 273 761.389 275.493 M 481 353.687 C 469.774 354.432, 449.124 358.056, 437 361.407 C 395.312 372.930, 361.193 392.769, 330.809 423.153 C 294.706 459.256, 272.679 502.502, 263.858 554.597 C 260.732 573.061, 260.752 608.610, 263.899 627.500 C 272.485 679.028, 294.928 723.075, 330.898 758.993 C 367.130 795.173, 410.890 817.493, 462.500 826.118 C 481.272 829.255, 516.799 829.250, 535.466 826.108 C 587.278 817.387, 630.715 795.318, 666.526 759.521 C 703.373 722.687, 726.003 678.359, 734.179 627 C 737.265 607.612, 737.230 573.120, 734.105 554.534 C 725.398 502.746, 703.319 459.286, 667.521 423.474 C 630.716 386.656, 585.777 363.717, 535.121 355.891 C 522.970 354.014, 493.902 352.830, 481 353.687 M 485.500 387.632 C 454.477 389.602, 421.681 399.997, 393.500 416.793 C 368.393 431.756, 340.319 459.831, 325.295 485 C 309.568 511.345, 301.333 533.906, 296.457 564 C 294.117 578.448, 294.117 610.552, 296.457 625 C 301.333 655.094, 309.568 677.655, 325.295 704 C 337.073 723.730, 356.412 745.054, 376 759.910 C 389.490 770.141, 395.928 774.124, 410.654 781.352 C 439.294 795.408, 465.404 801.305, 499 801.305 C 533.323 801.305, 558.995 795.421, 588.222 780.854 C 603.976 773.003, 611.536 768.272, 624 758.462 C 643.355 743.229, 661.762 722.623, 672.978 703.633 C 694.823 666.649, 703.289 636.042, 703.302 594 C 703.306 583.275, 703.005 573.150, 702.634 571.500 C 702.007 568.712, 702.284 568.328, 706.555 566.071 C 719.776 559.084, 724.532 543.097, 717.326 529.859 C 712.495 520.981, 703.868 516, 693.326 516 L 689.015 516 682.922 503.844 C 679.570 497.159, 675.823 490.071, 674.593 488.094 C 672.999 485.531, 672.565 483.783, 673.080 482 C 673.476 480.625, 673.845 475.184, 673.900 469.910 C 674.273 434.077, 648.155 405.506, 611.361 401.498 C 604.851 400.789, 592.309 402.274, 585.995 404.502 C 583.924 405.232, 581.841 405.449, 581.365 404.983 C 580.889 404.517, 576.455 402.510, 571.512 400.522 C 560.776 396.207, 543.044 391.600, 529.404 389.584 C 518.918 388.034, 495.541 386.995, 485.500 387.632 M 851.750 738.765 L 823 739.031 823 749.015 L 823 759 857.500 759 L 892 759 892 749 C 892 741.711, 891.661 738.978, 890.750 738.917 C 885.480 738.568, 876.777 738.534, 851.750 738.765 M 731.230 746.750 C 728.345 751.013, 725.258 755.513, 724.370 756.750 L 722.756 759 752.378 759 L 782 759 782 749 L 782 739 759.238 739 L 736.476 739 731.230 746.750" stroke="none" fill="#c7c6c6" fill-rule="evenodd"/><path d="M 787.325 395 L 699.151 395.500 705.609 402.500 C 714.928 412.602, 729.434 431.853, 736.879 444 C 743.789 455.275, 755.535 478.337, 758.524 486.500 C 759.531 489.250, 760.409 491.596, 760.474 491.713 C 760.540 491.831, 762.822 491.218, 765.547 490.351 C 768.917 489.279, 774.494 488.762, 783 488.732 C 794.413 488.692, 796.283 488.956, 804.500 491.771 C 817.989 496.391, 824.499 500.390, 834.084 509.947 C 841.222 517.064, 843.453 520.105, 847.333 528.003 C 853.657 540.877, 855.366 548.030, 855.336 561.500 C 855.307 575.002, 853.564 582.311, 847.368 594.925 C 843.616 602.564, 841.200 605.899, 834.620 612.523 C 820.315 626.921, 804.281 634.009, 785.294 634.328 L 775.088 634.500 774.401 640 C 773.422 647.838, 765.881 675.750, 761.635 687.250 L 758.036 697 825.018 697 L 892 697 892 545.731 L 892 394.462 883.750 394.481 C 879.212 394.491, 835.821 394.725, 787.325 395" stroke="none" fill="#864b31" fill-rule="evenodd"/><path d="M 133.420 123.886 C 128.632 126.806, 127 131.384, 127 141.901 L 127 151 119.696 151 C 107.017 151, 98.567 157.081, 96.076 168 C 95.511 170.475, 95.038 181.387, 95.024 192.250 L 95 212 83.196 212 C 72.619 212, 70.873 212.259, 66.389 214.493 C 63.638 215.865, 60.373 218.356, 59.136 220.031 C 54.171 226.745, 54 228.464, 54 271.626 L 54 312 43.250 312.004 C 34.352 312.007, 31.948 312.344, 29.299 313.960 C 22.738 317.960, 22.885 316.514, 23.208 373.952 L 23.500 425.840 26 428.515 C 30.328 433.146, 33.124 434, 43.950 434 L 54 434 54.022 608.250 C 54.043 778.265, 54.091 782.603, 55.975 786.754 C 58.402 792.102, 62.112 795.619, 68.500 798.626 L 73.500 800.980 194.128 800.990 C 305.185 800.999, 314.864 801.131, 316.128 802.656 C 318.728 805.794, 341.521 822.456, 352 828.879 C 384.535 848.821, 419.076 861.412, 458.412 867.671 C 472.484 869.910, 477.571 870.231, 499 870.231 C 520.429 870.231, 525.516 869.910, 539.588 867.671 C 579.060 861.391, 613.434 848.839, 646.134 828.765 C 656.748 822.249, 679.273 805.794, 681.872 802.656 C 683.135 801.132, 692.411 800.998, 797.872 800.976 C 872.609 800.960, 914.066 800.594, 917 799.924 C 923.563 798.427, 928.542 794.561, 931.467 788.691 L 934 783.607 934 741.304 L 934 699 954.250 698.996 C 972.797 698.993, 974.778 698.823, 977.810 696.974 C 984.432 692.937, 984 705.991, 984 510 C 984 310.881, 984.604 326.537, 976.788 322.990 C 973.022 321.281, 970.157 321.041, 953.250 321.022 L 934 321 933.990 276.250 L 933.980 231.500 931.626 226.500 C 928.858 220.620, 925.570 216.900, 920.887 214.347 C 917.671 212.593, 912.149 212.475, 811.629 212 L 705.758 211.500 694.412 186 C 681.802 157.658, 680.176 154.454, 676.808 151.290 C 670.871 145.712, 678.998 146, 527.567 146 C 375.001 146, 383.159 145.696, 375.212 151.683 C 371.072 154.802, 370.253 156.123, 353.471 186.750 L 339.635 212 325.318 212 L 311 212 310.990 191.250 C 310.981 171.552, 310.861 170.246, 308.626 165.500 C 304.025 155.727, 296.974 151.061, 286.750 151.022 L 281 151 280.985 141.250 C 280.969 130.253, 280.057 127.629, 275.088 124.280 L 271.704 122 204.102 122.004 C 139.725 122.007, 136.353 122.097, 133.420 123.886 M 150 148.500 L 150 152 204 152 L 258 152 258 148.500 L 258 145 204 145 L 150 145 150 148.500 M 397.205 192.246 C 389.471 206.039, 386.800 211.131, 387.135 211.443 C 387.748 212.014, 661.001 212.601, 660.986 212.032 C 660.979 211.739, 658.564 206.100, 655.620 199.500 L 650.266 187.500 525.209 187.246 L 400.151 186.992 397.205 192.246 M 136 202 L 136 212 203 212 L 270 212 270 202 L 270 192 203 192 L 136 192 136 202 M 95 303.500 L 95 354 118.250 353.974 L 141.500 353.948 144.928 348.896 C 154.529 334.745, 173.731 325, 192.010 325 C 209.358 325, 228.135 334.668, 237.781 348.566 L 241.500 353.924 296.861 353.962 L 352.222 354 360.361 349.114 C 387.030 333.102, 424.013 320.319, 459.500 314.846 C 480.499 311.607, 515.234 311.637, 538 314.912 C 572.608 319.892, 611.910 333.453, 638.477 349.582 L 645.753 354 769.377 354 L 893 354 893 303.500 L 893 253 494 253 L 95 253 95 303.500 M 762.491 275.865 C 757.450 278.155, 752.425 283.807, 751.060 288.723 C 750.483 290.800, 750.009 297.577, 750.006 303.782 C 749.999 316.168, 751.148 320.439, 755.803 325.339 C 761.756 331.607, 760.737 331.471, 804.465 331.804 C 849.400 332.145, 849.995 332.068, 856.295 325.095 C 862.039 318.738, 863.316 313.868, 862.807 300.280 C 862.331 287.586, 861.387 284.598, 856.339 279.803 C 850.311 274.077, 849.630 273.998, 806.282 274.022 C 769.966 274.042, 766.151 274.203, 762.491 275.865 M 46 373.057 L 46 411.115 50.250 410.807 L 54.500 410.500 54.762 372.750 L 55.024 335 50.512 335 L 46 335 46 373.057 M 933 510 L 933 676 947 676 L 961 676 961 510 L 961 344 947 344 L 933 344 933 510 M 480.500 352.961 C 443.834 355.781, 406.093 368.014, 374.821 387.215 C 358.137 397.459, 345.645 407.360, 330.933 422 C 293.686 459.064, 271.354 502.990, 262.809 556 C 259.909 573.988, 259.926 607.250, 262.845 625.674 C 269.452 667.378, 283.985 701.945, 309.021 735.500 C 321.741 752.548, 351.714 780.851, 366.196 789.488 C 367.129 790.045, 372.529 793.292, 378.196 796.704 C 403.261 811.796, 431.461 821.849, 463.500 827.114 C 481.999 830.154, 515.822 830.145, 534.500 827.095 C 587.515 818.437, 630.905 796.329, 668.013 759.068 C 704.875 722.053, 726.714 678.674, 735.170 625.674 C 738.083 607.410, 738.088 574.158, 735.179 556 C 726.733 503.279, 704.664 459.696, 667.535 422.411 C 630.915 385.638, 585.640 362.762, 534.174 355.027 C 519.416 352.809, 494.794 351.861, 480.500 352.961 M 484.500 389.043 C 434.486 392.901, 390.295 413.511, 354.415 449.711 C 329.241 475.109, 310.598 508.563, 301.591 544.500 C 294.178 574.077, 294.155 615.007, 301.535 644.307 C 310.616 680.360, 328.843 713.329, 353.624 738.525 C 380.622 765.975, 409.968 783.463, 445.061 793.014 C 464.840 798.397, 478.705 800.300, 498.500 800.349 C 518.596 800.398, 532.872 798.473, 553.014 792.996 C 622.835 774.012, 677.880 717.554, 695.902 646.441 C 701.457 624.524, 704.022 592.505, 701.640 574.825 L 700.875 569.150 694.427 569.188 C 674.339 569.303, 661.528 548.749, 670.394 530.627 C 673.234 524.823, 680.002 518.540, 684.677 517.366 C 685.955 517.046, 687 516.230, 687 515.553 C 687 514.145, 677.877 495.195, 674.760 490.128 L 672.686 486.755 670.559 492.628 C 666.968 502.545, 662.003 510.156, 653.817 518.293 C 647.112 524.957, 646.125 526.365, 647.002 528.005 C 648.636 531.057, 653.693 545.900, 655.507 552.968 C 662.039 578.413, 662.039 610.587, 655.507 636.032 C 651.510 651.604, 644.763 667.591, 636.806 680.347 C 610.957 721.785, 570.800 748.861, 523.913 756.465 C 512.064 758.387, 486.402 758.442, 475 756.569 C 405.539 745.165, 352.033 692.339, 339.891 623.178 C 337.043 606.952, 337.043 582.048, 339.891 565.822 C 348.796 515.101, 382.006 470.159, 427.002 447.940 C 451.185 435.997, 472.321 431.035, 499 431.035 C 514.510 431.035, 525.355 432.287, 538.442 435.588 C 545.125 437.274, 545.423 437.271, 546.442 435.514 C 552.534 425.006, 563.633 414.483, 574.646 408.772 L 580.928 405.515 572.214 402.191 C 545.340 391.940, 511.908 386.928, 484.500 389.043 M 246.004 394.833 C 245.452 395.017, 245 395.854, 245 396.693 C 245 400.190, 238.151 410.918, 232.036 417.001 C 224.405 424.591, 214.412 430.225, 204.387 432.589 C 196.455 434.460, 182.457 434.007, 174.914 431.636 C 159.780 426.879, 147.016 416.139, 140.584 402.750 L 136.860 395 115.930 395 L 95 395 95 546.500 L 95 698 168.107 698 C 237.332 698, 241.177 697.907, 240.515 696.250 C 232.641 676.541, 226.305 653.060, 222.908 631 C 219.659 609.901, 219.657 571.852, 222.904 551 C 231.649 494.847, 255.628 443.910, 292.152 403.903 C 296.468 399.175, 300 395.066, 300 394.772 C 300 394.206, 247.716 394.265, 246.004 394.833 M 704.373 402.250 C 713.835 412.479, 727.402 430.297, 735.782 443.500 C 741.951 453.220, 754.929 478.782, 758.439 488.126 L 760.177 492.751 764.838 491.216 C 768.116 490.136, 773.509 489.685, 783 489.698 C 795.007 489.714, 797.385 490.015, 804.500 492.421 C 816.670 496.537, 824.571 501.438, 833.541 510.435 C 842.404 519.325, 847.540 527.656, 851.695 539.880 C 853.969 546.574, 854.287 549.141, 854.308 561 C 854.328 572.544, 853.975 575.659, 851.874 582.500 C 845.030 604.780, 826.435 623.602, 804.278 630.679 C 798.791 632.431, 793.214 633.329, 785.347 633.725 L 774.195 634.288 773.520 639.894 C 772.414 649.089, 766.333 671.968, 761.510 685.082 C 759.030 691.827, 757 697.513, 757 697.718 C 757 697.922, 787.487 697.957, 824.750 697.795 L 892.500 697.500 892.753 545.750 L 893.006 394 794.874 394 L 696.742 394 704.373 402.250 M 491.500 455.635 C 456.078 458.011, 422.556 473.739, 398.303 499.361 C 375.903 523.026, 363.085 551.784, 360.046 585.197 C 354.826 642.580, 385.774 697.741, 437.888 723.944 C 456.895 733.500, 477.253 738.218, 499.500 738.220 C 522.781 738.223, 542.741 733.683, 561.985 724.007 C 589.114 710.367, 611.965 687.822, 625.166 661.672 C 644.180 624.004, 645.495 579.307, 628.752 539.725 C 627.276 536.236, 626.297 535.087, 625.116 535.458 C 611.798 539.645, 592.113 538.403, 579.381 532.574 L 573.931 530.079 577.347 534.289 C 585.613 544.478, 592.335 558.002, 596.171 572.160 C 598.089 579.239, 598.431 582.995, 598.431 597 C 598.431 616.339, 596.743 624.387, 589.444 639.852 C 581.291 657.126, 569.742 670.410, 553.593 681.087 C 543.141 687.997, 532.192 692.471, 519 695.222 C 505.653 698.006, 486.276 697.307, 473.716 693.589 C 438.427 683.143, 413.507 657.559, 403.829 621.840 C 401.911 614.761, 401.569 611.005, 401.569 597 C 401.569 582.995, 401.911 579.239, 403.829 572.160 C 414.043 534.463, 443.158 506.641, 480.500 498.894 C 502.144 494.403, 529.992 498.610, 547.810 509.062 C 549.631 510.130, 550.787 510.440, 550.380 509.752 C 549.974 509.063, 548.530 506.716, 547.172 504.535 C 545.814 502.354, 543.356 496.954, 541.710 492.535 C 539.215 485.836, 538.640 482.588, 538.252 473 C 537.996 466.675, 537.497 461.191, 537.143 460.813 C 534.736 458.241, 504.230 454.780, 491.500 455.635 M 492 528.149 C 484.153 528.932, 474.445 532.061, 467 536.207 C 438.232 552.227, 424.302 586.252, 433.516 618 C 436.899 629.659, 441.974 637.987, 451.494 647.500 C 465.967 661.963, 481.111 668.308, 501.030 668.253 C 512.477 668.222, 520.317 666.302, 532 660.667 C 538.829 657.374, 542.187 654.890, 549.078 648.034 C 554.436 642.704, 558.986 637.060, 561.197 633 C 580.495 597.575, 568.077 554.715, 533 535.679 C 521.431 529.400, 506.653 526.686, 492 528.149 M 777.112 530.097 C 774.698 530.562, 772.553 531.113, 772.345 531.322 C 772.136 531.530, 773.077 538.631, 774.436 547.100 C 775.795 555.570, 777.217 569.322, 777.597 577.661 L 778.288 592.822 780.894 593.329 C 784.904 594.109, 792.676 592.301, 798.172 589.310 C 818.514 578.239, 819.923 548.290, 800.720 535.172 C 793.818 530.457, 785.034 528.569, 777.112 530.097 M 95 749 L 95 760 127 760 L 159 760 159 749 L 159 738 127 738 L 95 738 95 749 M 199.746 739.250 C 199.488 739.938, 199.403 741.625, 199.555 743 C 199.708 744.375, 199.871 748.763, 199.917 752.750 L 200 760 238.587 760 L 277.173 760 273.973 755.750 C 272.213 753.413, 268.777 748.462, 266.338 744.750 L 261.903 738 231.059 738 C 207.299 738, 200.106 738.287, 199.746 739.250 M 731.599 744.750 C 729.186 748.462, 725.770 753.419, 724.008 755.765 L 720.806 760.029 751.634 759.765 L 782.463 759.500 782.312 752 C 782.229 747.875, 782.125 743.038, 782.081 741.250 L 782 738 758.993 738 L 735.987 738 731.599 744.750 M 822.823 739.614 C 822.645 740.502, 822.643 745.452, 822.819 750.614 L 823.137 760 858.069 760 L 893 760 893 749 L 893 738 858.073 738 C 826.728 738, 823.113 738.166, 822.823 739.614" stroke="none" fill="#090609" fill-rule="evenodd"/></svg>